<svg width="61" height="146" viewBox="0 0 61 146" fill="none" xmlns="http://www.w3.org/2000/svg">
<g opacity="0.3">
<path d="M10.6515 75.2045C9.76518 75.2045 8.98748 74.9936 8.31845 74.5717C7.65368 74.1499 7.13379 73.5597 6.75879 72.8011C6.38805 72.0426 6.20268 71.1562 6.20268 70.142C6.20268 69.1193 6.38805 68.2266 6.75879 67.4638C7.13379 66.701 7.65368 66.1087 8.31845 65.6868C8.98748 65.2649 9.76518 65.054 10.6515 65.054C11.5379 65.054 12.3135 65.2649 12.9782 65.6868C13.6473 66.1087 14.1672 66.701 14.5379 67.4638C14.9129 68.2266 15.1004 69.1193 15.1004 70.142C15.1004 71.1562 14.9129 72.0426 14.5379 72.8011C14.1672 73.5597 13.6473 74.1499 12.9782 74.5717C12.3135 74.9936 11.5379 75.2045 10.6515 75.2045ZM10.6515 73.8494C11.3248 73.8494 11.8788 73.6768 12.3135 73.3317C12.7481 72.9865 13.0699 72.5327 13.2787 71.9702C13.4875 71.4077 13.5919 70.7983 13.5919 70.142C13.5919 69.4858 13.4875 68.8743 13.2787 68.3075C13.0699 67.7408 12.7481 67.2827 12.3135 66.9332C11.8788 66.5838 11.3248 66.4091 10.6515 66.4091C9.97825 66.4091 9.42427 66.5838 8.98961 66.9332C8.55495 67.2827 8.23322 67.7408 8.02441 68.3075C7.81561 68.8743 7.7112 69.4858 7.7112 70.142C7.7112 70.7983 7.81561 71.4077 8.02441 71.9702C8.23322 72.5327 8.55495 72.9865 8.98961 73.3317C9.42427 73.6768 9.97825 73.8494 10.6515 73.8494ZM17.4031 75V65.1818H18.8605V66.6648H18.9628C19.1418 66.179 19.4656 65.7848 19.9344 65.4822C20.4031 65.1797 20.9316 65.0284 21.5196 65.0284C21.6304 65.0284 21.7689 65.0305 21.9351 65.0348C22.1013 65.0391 22.227 65.0455 22.3122 65.054V66.5881C22.2611 66.5753 22.1439 66.5561 21.9607 66.5305C21.7817 66.5007 21.5921 66.4858 21.3918 66.4858C20.9145 66.4858 20.4884 66.5859 20.1134 66.7862C19.7426 66.9822 19.4486 67.255 19.2313 67.6044C19.0182 67.9496 18.9117 68.3437 18.9117 68.7869V75H17.4031Z" fill="white"/>
<path d="M43 22.5985L24.9842 22.5989C18.9091 22.599 13.9843 27.524 13.9845 33.5991L13.9847 47.5988" stroke="white"/>
<path d="M45 122.65L26.6396 122.65C20.0121 122.65 14.6396 117.278 14.6396 110.65L14.6397 94.6505" stroke="white"/>
</g>
</svg>
